<?xml version="1.0" encoding="UTF-8"?>
<!DOCTYPE svg PUBLIC "-//W3C//DTD SVG 1.1//EN" "http://www.w3.org/Graphics/SVG/1.1/DTD/svg11.dtd">
<!-- Creator: CorelDRAW X7 -->
<svg xmlns="http://www.w3.org/2000/svg" xml:space="preserve" width="32px" height="32px" version="1.1" style="shape-rendering:geometricPrecision; text-rendering:geometricPrecision; image-rendering:optimizeQuality; fill-rule:evenodd; clip-rule:evenodd"
viewBox="0 0 32 32"
 xmlns:xlink="http://www.w3.org/1999/xlink">
 <defs>
  <style type="text/css">
   <![CDATA[
    .fil4 {fill:#000130}
    .fil10 {fill:#040430}
    .fil49 {fill:#5E81F2}
    .fil21 {fill:#6486F2}
    .fil15 {fill:#688AE9}
    .fil38 {fill:#6B5731}
    .fil16 {fill:#708FF0}
    .fil9 {fill:#7796E9}
    .fil37 {fill:#7994D9}
    .fil13 {fill:#7997F2}
    .fil40 {fill:#7C99F3}
    .fil41 {fill:#7D99F5}
    .fil43 {fill:#829DF5}
    .fil11 {fill:#829EE9}
    .fil50 {fill:#849CD7}
    .fil12 {fill:#89A5EA}
    .fil47 {fill:#8BA5F6}
    .fil24 {fill:#8EA8F4}
    .fil31 {fill:#91A9F7}
    .fil7 {fill:#94ACE9}
    .fil17 {fill:#97AAD7}
    .fil48 {fill:#9DB1DD}
    .fil26 {fill:#A2AEC8}
    .fil44 {fill:#A2B6F8}
    .fil32 {fill:#A4B3D7}
    .fil30 {fill:#A5BAF2}
    .fil20 {fill:#A6B9E8}
    .fil25 {fill:#AEC0F7}
    .fil35 {fill:#B1C2F9}
    .fil34 {fill:#B7C7F8}
    .fil46 {fill:#C5CFEC}
    .fil27 {fill:#C5D2FA}
    .fil39 {fill:#CAD5FB}
    .fil29 {fill:#CED9FA}
    .fil18 {fill:#D2DCFB}
    .fil23 {fill:#D5DDFC}
    .fil5 {fill:#E0E7FA}
    .fil36 {fill:#E5EAFD}
    .fil28 {fill:#EBF0FD}
    .fil14 {fill:#EDF1FD}
    .fil22 {fill:#F0F3FE}
    .fil6 {fill:#F2F5FE}
    .fil8 {fill:#F5C534}
    .fil2 {fill:#F5F7FE}
    .fil0 {fill:#F6C533}
    .fil19 {fill:#F7F9FE}
    .fil42 {fill:#FBE5A4}
    .fil1 {fill:#FBFCFF}
    .fil33 {fill:#FEF9EC}
    .fil3 {fill:#FEFEFE}
    .fil45 {fill:#FFFFFD}
   ]]>
  </style>
 </defs>
 <g id="Layer_x0020_1">
  <metadata id="CorelCorpID_0Corel-Layer"/>
  <g id="_2712340352240">
   <path class="fil0" d="M15 21c0,0 1,0 1,1l-1 0 0 -1zm1 0l1 0 0 1c0,0 0,0 -1,0 0,0 0,-1 0,-1zm-7 0l2 0c-1,1 -1,1 -2,0zm6 0l0 0c1,-1 1,-1 1,-1l2 0 0 1 0 0 0 0c-1,-1 -1,-1 -2,0l0 0 -1 0zm-6 -1l3 -1c0,1 -2,1 -2,1 0,0 -1,0 -1,0zm-2 -1c1,0 1,0 1,1 1,0 2,1 2,1 2,0 2,0 3,-1 0,0 1,0 1,0l0 0c0,1 -1,1 -1,1 -1,0 -2,0 -3,0 -1,0 -2,0 -2,0 -1,-1 -1,-1 -2,-1l1 -1zm-1 -1l0 0 1 0 2 0 1 0 1 0 1 0 1 0 1 1c0,0 0,-1 0,0 0,0 0,0 0,0 -1,-1 -1,0 -2,0l-3 0c-1,0 -1,-1 -2,-1 0,1 0,1 0,1l-1 0c0,0 0,0 0,-1l0 0zm9 2l-1 0c1,-1 1,-2 1,-2l1 0 0 0 0 0c0,1 -1,2 -1,2l0 0zm-2 -3c0,0 0,1 0,1l0 0 0 0c0,-1 0,-1 0,-1 0,0 0,0 0,0zm-2 0c0,0 0,1 0,1l-1 0 1 -1zm10 -3l0 0 0 4 0 0 0 -4zm-4 0l0 0 0 4 0 0 0 -4zm-1 0l0 0 0 0 0 3 0 1 0 0 0 -4zm6 3c0,0 0,0 0,0l0 0zm-6 1c0,-1 0,-1 1,-2 0,1 -1,1 -1,2zm-2 -1c0,0 0,0 0,-1 0,1 0,1 0,1 0,0 0,0 0,0zm9 -1l1 0 0 0c0,0 0,1 0,1 0,0 0,0 0,0l0 0 -1 0 0 0c0,0 0,0 0,-1zm2 1c0,0 0,0 0,0l1 0c0,0 0,0 0,0 -1,0 0,0 -1,0zm-4 -2l1 0 0 2 -1 0 0 -2zm-2 5l0 0c0,0 0,0 -1,-1 0,0 0,0 0,0l-1 0c0,0 0,0 0,-1 0,0 0,0 0,0l0 0c0,-1 0,-1 0,-1 0,-1 0,-1 1,-1 0,0 0,0 0,1l0 1c0,0 1,0 2,0 0,0 0,-1 0,-2l1 0 0 2c0,0 0,0 0,0l-2 2zm7 -3c0,1 -2,1 -2,-1 1,-2 3,-1 2,0l-1 0c-1,1 0,1 0,1 1,1 1,0 1,0zm-15 -1c0,0 0,0 0,0 0,0 0,0 0,0l0 0 0 0 0 0zm1 0l0 0 0 0 0 0zm-2 0l0 0 0 0 0 0zm-2 0c0,1 1,1 1,1l0 1 0 0 0 0 -2 0c0,0 0,0 0,-1 0,0 -1,0 -1,1l0 0 -1 0c0,-1 0,-2 0,-2l1 0 0 0 0 0c0,0 0,1 0,1 1,0 1,-1 1,-1l0 0 1 0c0,0 1,0 1,0 -1,0 -1,0 -1,0zm8 0c0,0 0,-1 0,-2 1,0 0,0 0,1l1 1 -1 0zm-2 0c0,-1 1,-1 0,0 0,0 0,0 0,0zm5 0l0 0c1,0 1,0 1,0 1,2 -2,2 -2,2l0 -4c0,0 2,0 2,1 0,0 0,1 -1,1zm-1 -1c-1,0 0,0 0,0 0,0 0,0 0,0zm-10 -1l1 0 0 1 -1 0 -1 0c0,0 0,0 0,-1l1 0zm5 1c0,0 1,0 1,0 0,0 1,0 1,0 0,0 0,2 0,3l0 0c0,-1 0,-1 0,-1 0,0 0,0 0,0 0,0 0,-1 0,-1 -1,0 -1,0 -1,0 -1,1 -1,2 0,1 0,1 -1,1 -1,0 0,-1 1,-1 2,-1 0,-1 -1,-1 -2,-1zm10 0l0 3 0 0 0 -3 -1 0 0 -1c0,0 2,0 2,0l0 1 -1 0zm-6 -1l1 0c0,1 0,1 -1,1l0 -1zm7 0l3 0 0 2 0 0c-1,-1 -1,-1 -2,-1 -1,0 -1,0 -1,1l0 0c-1,-1 0,0 -1,-1l0 0 1 0 0 -1zm-12 0l0 0 0 1 0 0 0 0 -1 -1 1 0zm-2 1c0,0 0,0 0,0 0,0 0,0 0,-1l0 0 0 0 0 1 0 0zm1 0c-1,0 -1,2 -1,3l0 0c-1,-1 -1,-3 -1,-4l0 0c0,1 0,3 1,3 0,0 0,0 0,0 0,0 0,0 0,-1 0,0 0,0 0,0 0,-1 0,-1 1,-2l0 0c0,1 0,1 0,2l1 1c0,0 0,0 0,0 0,0 0,-2 1,-3l0 0c0,1 -1,3 -1,4l0 0c-1,-1 -1,-3 -1,-3zm10 0l0 1 -1 -1c0,0 0,0 0,-1l1 0 0 1zm-15 0l-1 0c0,0 0,0 0,-1l1 0 0 0 0 1 0 0zm22 -1l0 0 0 1 0 -1zm-15 0l1 0c0,1 0,1 0,1 -1,0 -1,0 -1,0l0 -1zm14 0l0 0 1 2 1 -2 0 0 -1 2 1 2 0 0 -1 -2c0,0 -1,1 -1,2l0 0 1 -2 -1 -2zm-11 0l0 -1 0 0c0,1 0,1 0,1l0 0 0 0 0 0c-1,0 0,0 -1,0 0,0 1,0 1,0zm-8 0l-1 0 0 0c1,-1 2,-2 4,-2 1,0 3,1 3,2l0 0 0 0 -1 0c0,0 0,0 0,0 -1,0 -1,0 -1,0l0 0 -2 0 0 0c-1,0 -1,0 -1,0l-1 0zm10 -3l0 1 -1 0 1 -1zm-12 -3c0,0 1,1 1,1 0,0 0,1 0,2 0,0 -1,0 -1,0 0,0 0,1 0,1 -1,0 -2,0 -2,0 0,0 0,-1 -1,-1 0,-1 0,0 -1,0 0,0 -1,0 -1,0 0,1 1,0 2,0 0,1 0,1 0,1 1,1 1,1 2,1 0,0 0,0 0,0 -1,1 0,1 -1,1 0,1 0,1 0,1 -1,1 -2,0 -3,0 0,1 0,1 0,1l3 0c0,1 0,1 0,1 1,1 0,0 0,1l1 0c0,0 0,1 0,1l-1 0c-1,0 -1,0 -1,1 0,0 0,0 0,0 -1,0 -2,0 -2,0 0,1 0,1 0,1 0,0 1,0 1,0 1,0 1,0 1,0 1,-1 1,-1 2,-1l2 1 -1 0c0,0 -1,0 -2,0l0 0 2 0 0 0 1 0 0 2c0,0 -1,0 -1,1 -1,0 0,0 0,1 0,0 -1,0 0,1 1,0 0,-1 0,-2 0,0 0,0 1,0 0,0 0,0 0,-1 1,0 1,-1 1,-1 0,0 0,0 1,0 0,0 0,0 1,0l-1 1 0 0c0,0 0,0 0,0l1 0c1,-1 0,-1 0,1 0,1 0,2 1,2 1,0 0,-3 0,-3 0,-1 1,-1 1,-1 1,0 1,0 2,0l0 0c0,1 0,1 0,1 1,1 1,1 1,1 0,1 0,1 1,2 0,0 0,0 0,0l0 0c0,-1 0,-1 0,-2 0,0 0,0 -1,-1 0,0 0,0 0,-1l0 0 1 0 3 3c0,0 0,1 0,1 1,0 1,0 1,0 1,0 0,-1 0,-1l-2 -1 5 0c0,0 1,0 1,-1 0,0 0,0 -1,0 0,0 0,0 0,0l-5 0 -1 -1c0,0 3,1 4,1 1,0 3,0 4,0 1,0 3,0 4,0 1,-1 2,-2 2,-3l-1 0c-1,1 2,3 -9,2 -1,0 -2,0 -3,0 0,-1 0,-1 0,-1l0 0c1,0 1,0 1,0 1,0 1,0 1,0 1,0 1,0 0,-1 0,0 0,0 -1,0 0,0 0,0 0,0l1 -1 6 0c0,0 0,0 0,0 1,0 1,-1 0,0l-5 0 1 -2 0 0 0 1 1 0 0 0c0,-1 0,0 0,-1 0,0 1,0 1,0 1,1 1,1 1,1 1,0 1,0 1,-1l0 0c1,-1 1,0 1,-1l0 0 -1 2 1 0 1 -1 1 1 1 0 -2 -2 3 0c1,1 1,-1 0,0l-2 0 0 -2c1,1 1,1 2,1 0,-1 0,0 0,-1 0,0 1,0 1,-1l0 0 -1 1c-1,-1 -1,-1 -2,0l-10 0 1 -1c1,0 1,0 1,-1l5 0c2,1 1,-1 0,0l-5 0c0,-1 0,-1 0,-1 -1,0 -1,0 -1,1 0,0 0,0 0,0l-2 2c0,0 -1,0 -1,0l0 0c0,0 0,-1 0,-1 0,0 1,0 1,-1 1,0 1,0 1,-1 1,0 2,1 2,0 -1,-1 -1,0 -2,0l0 -1c0,0 0,0 0,0l5 0c1,1 1,0 1,0 -1,0 -1,0 -1,0l-5 0c0,-1 -1,0 -1,1l-1 1c0,0 0,0 -1,0 0,0 0,-1 0,-1 -1,0 -1,0 -1,0 0,-1 0,-2 0,-2 0,0 1,-1 1,-1 0,0 0,-2 0,-2 -1,0 -1,1 -1,2 0,0 0,0 -1,0 0,1 0,1 0,2 0,0 0,0 -1,0 0,0 0,0 0,0 -1,0 0,1 1,1 1,0 2,1 2,2l0 0 -1 0 0 1 0 0c0,-1 0,-1 -1,-1 -1,-2 -4,-3 -6,-1 -1,1 -1,2 -2,2l0 0 -1 0 0 0c1,-1 2,-2 3,-3 0,0 1,-1 2,-1 1,0 2,0 2,0 0,-1 0,-1 -1,-1 0,-1 1,-3 0,-3 -1,0 -1,3 -1,3 0,0 0,0 0,0l-2 1c0,-1 0,-1 -1,-2 0,0 0,0 -1,0 0,-1 1,-2 0,-2 -1,0 -1,1 0,2z"/>
   <path class="fil1" d="M9 12c-1,1 -1,1 -2,2l1 0c1,0 1,-1 2,0l0 0 2 0c0,0 1,-1 1,0l1 0c0,-1 -1,-1 -2,-2 0,0 -1,0 -2,0 0,0 -1,0 -1,0z"/>
   <path class="fil2" d="M5 14l1 0c0,-1 1,-2 2,-2 1,-1 4,-2 5,0 2,0 2,1 2,2l0 -1c0,0 0,0 0,-1 -1,0 -2,-1 -2,-1 0,0 -1,0 -1,0 0,-1 0,-1 0,-1 -1,1 -2,0 -4,1 -1,0 -1,1 -2,1 0,1 0,2 -1,2z"/>
   <path class="fil1" d="M9 19l3 0c1,0 1,-1 2,0l0 0 -1 -1 -1 0c0,0 0,0 -1,0l-1 0c0,0 -1,1 -1,0l-2 0c0,0 0,0 -1,0l0 0 0 0 0 1 1 0c0,0 0,0 0,0 1,-1 1,-1 2,0z"/>
   <path class="fil3" d="M18 17c0,0 0,0 -1,0 0,0 0,0 0,1l0 0c0,0 0,0 0,0 0,1 0,1 0,1l1 0c1,0 1,1 1,1l2 -2c0,0 0,0 0,0l0 -2 -1 0c0,1 0,2 0,2 -1,0 -2,0 -2,0l0 -1z"/>
   <path class="fil4" d="M10 18l0 0c0,-1 0,-3 1,-3 0,0 0,2 1,3l0 0c0,-1 1,-3 1,-4l0 0c-1,1 -1,3 -1,3 0,0 0,0 0,0l-1 -1c0,-1 0,-1 0,-2l0 0c-1,1 -1,1 -1,2 0,0 0,0 0,0 0,1 0,1 0,1 0,0 0,0 0,0 -1,0 -1,-2 -1,-3l0 0c0,1 0,3 1,4z"/>
   <path class="fil5" d="M14 20c-1,0 -1,0 -2,1 0,0 -2,0 -3,0 0,0 -2,-1 -2,-2l-1 1c1,0 1,0 2,1 0,0 1,0 2,0 1,0 2,0 3,0 0,0 1,0 1,-1l0 0z"/>
   <path class="fil1" d="M17 14c0,0 1,0 1,0l2 -2c0,0 0,0 0,0 -2,0 -1,0 -2,1 0,0 0,0 -1,0 0,0 0,1 0,1z"/>
   <path class="fil6" d="M6 18c0,-1 0,-1 1,-1 0,0 0,0 0,1l2 0c0,-1 0,-1 0,-1 -1,0 -1,0 -2,0 0,-1 1,-1 1,-1l-1 0c0,0 0,1 -1,1 0,0 0,0 0,0 0,-1 0,-1 0,-1l-1 0c0,0 0,1 0,2l1 0z"/>
   <path class="fil4" d="M18 17l0 -1c1,0 2,0 2,1 0,0 -1,0 -2,0zm1 -1l-1 0 0 -1c1,0 1,0 2,0 0,0 0,1 -1,1zm0 0c1,0 1,-1 1,-1 0,-1 -2,-1 -2,-1l0 4c0,0 3,0 2,-2 0,0 0,0 -1,0l0 0z"/>
   <path class="fil0" d="M22 19l0 0c0,1 0,2 0,3 1,0 1,-1 1,-1 0,0 0,0 0,-1 0,1 0,2 1,2l0 -3c0,0 0,0 0,1 0,0 0,0 0,0 0,0 0,1 0,1l-1 -1 0 0 -1 1 0 -2z"/>
   <path class="fil3" d="M24 15l-1 0 0 0c1,1 0,0 1,1l0 0c0,-1 0,-1 1,-1 1,0 1,0 2,1l0 0 0 -2 -3 0 0 1z"/>
   <path class="fil7" d="M11 6l0 0c1,0 0,2 0,3 1,0 1,0 1,1 0,0 -1,0 -2,0 -1,0 -2,1 -2,1 -1,1 -2,2 -3,3l0 0c1,0 1,-1 1,-2 1,0 1,-1 2,-1 2,-1 3,0 4,-1 0,0 0,0 0,-1 0,0 0,0 -1,0 0,-1 1,-3 0,-3 0,0 0,0 0,0z"/>
   <path class="fil8" d="M25 21l0 0c0,0 1,0 1,0l0 0c0,0 -1,0 -1,0zm0 -1c1,0 1,0 0,0l0 0zm1 0c1,-1 -1,-1 -1,-1l0 3c1,0 2,-1 1,-2z"/>
   <path class="fil4" d="M28 16l-1 2 0 0c0,-1 1,-2 1,-2l1 2 0 0 -1 -2 1 -2 0 0 -1 2 -1 -2 0 0 1 2z"/>
   <path class="fil9" d="M3 19c0,0 0,1 0,1 0,0 0,0 -1,0 0,0 -1,0 -1,0 0,1 -1,1 1,1 0,0 0,1 1,0 1,0 0,0 1,-1l0 0c0,0 1,0 1,0 1,0 1,1 1,1l0 0 1 0 -2 -1c-1,0 -1,0 -2,1 0,0 0,0 -1,0 0,0 -1,0 -1,0 0,0 0,0 0,-1 0,0 1,0 2,0 0,0 0,0 0,0 0,-1 0,-1 1,-1l0 0 -1 0z"/>
   <polygon class="fil3" points="21,17 22,17 22,15 21,15 "/>
   <path class="fil10" d="M25 16c-1,-1 1,-1 1,0l-1 0zm1 1c0,0 0,1 -1,0 0,0 -1,0 0,-1l1 0c1,-1 -1,-2 -2,0 0,2 2,2 2,1z"/>
   <path class="fil11" d="M10 23c0,0 0,0 0,0 0,2 0,3 1,3 0,-1 0,0 0,-1 0,0 0,-2 0,-2l3 -1c0,1 0,1 0,1 0,0 0,0 0,-1 -1,0 -1,0 -2,0 0,0 -1,0 -1,1 0,0 1,3 0,3 -1,0 -1,-1 -1,-2 0,-2 1,-2 0,-1z"/>
   <path class="fil4" d="M13 15c1,0 2,0 2,1 -1,0 -2,0 -2,1 0,1 1,1 1,0 -1,1 -1,0 0,-1 0,0 0,0 1,0 0,0 0,1 0,1 0,0 0,0 0,0 0,0 0,0 0,1l0 0c0,-1 0,-3 0,-3 0,0 -1,0 -1,0 0,0 -1,0 -1,0z"/>
   <path class="fil9" d="M1 11c0,0 0,1 0,1 1,0 2,-1 2,0l0 0c0,0 0,1 0,1 1,0 1,0 1,0 1,1 0,1 0,1 1,0 0,0 1,-1 0,0 0,0 0,0 -1,0 -1,0 -2,-1 0,0 0,0 0,-1 -1,0 -2,1 -2,0 0,0 1,0 1,0 1,0 1,-1 1,0 1,0 1,1 1,1l0 0c0,-1 -1,-1 -1,-2 0,0 -1,0 -1,0 -1,0 -1,0 -1,1z"/>
   <path class="fil12" d="M15 6c0,1 0,1 0,1 0,0 0,1 0,1 -1,0 -1,0 -1,2l-1 0c1,0 1,0 1,0 0,-1 0,-1 0,-2 1,0 1,0 1,0 0,-1 0,-2 1,-2 0,0 0,2 0,2 0,0 -1,1 -1,1 0,0 0,1 0,2 0,0 0,0 1,0 0,0 0,1 0,1 1,0 1,0 1,0l-1 0c0,0 -1,-2 -1,-2 0,0 0,-1 0,-1 0,0 1,-1 1,-1 0,0 0,-1 0,-2 0,0 0,0 -1,0z"/>
   <path class="fil13" d="M1 15c0,1 0,1 0,1 0,1 2,0 3,1 0,0 0,0 0,1 0,0 0,1 0,1 0,0 0,0 0,0l1 0c0,0 0,-1 0,-1l-1 0c0,-1 1,0 0,-1 0,0 0,0 0,-1l-3 0c0,0 0,0 0,-1l0 0c0,0 0,0 0,0z"/>
   <path class="fil14" d="M15 20c0,0 1,-1 1,-2l0 0 -1 0c0,0 0,1 -1,2l1 0z"/>
   <path class="fil15" d="M7 14c1,-1 1,-1 2,-2 0,0 2,0 3,0 1,1 2,1 2,2l0 0c0,-1 -2,-2 -3,-2 -2,0 -3,1 -4,2l0 0z"/>
   <path class="fil0" d="M26 19c0,1 1,1 1,1l-1 2 1 0 0 -1 1 1 0 0c0,-1 0,-1 -1,-2 1,0 1,0 1,-1 0,0 0,1 -1,1l0 -1 -1 0z"/>
   <path class="fil4" d="M23 15l0 3 0 0 0 -3c0,0 0,0 0,0l1 0 0 -1 -2 0 0 1 0 0c1,0 1,0 1,0z"/>
   <path class="fil16" d="M14 20c0,0 -1,0 -1,0 -1,1 -1,1 -3,1 0,0 -1,-1 -2,-1 0,-1 0,-1 -1,-1 0,1 2,2 2,2 1,0 3,0 3,0 1,-1 1,-1 2,-1z"/>
   <path class="fil11" d="M6 23l-1 1c0,0 0,0 0,0 0,0 0,2 1,2 0,0 0,0 0,0 1,-1 1,-1 1,-2 -1,0 -1,0 -1,0 0,1 1,2 0,2 -1,-1 0,-1 0,-1 0,-1 -1,-1 0,-1 0,-1 1,-1 1,-1l0 -2 -1 0c1,1 1,1 1,2 -1,0 -1,0 -1,0z"/>
   <path class="fil17" d="M6 14l0 0c1,0 1,-1 2,-2 2,-2 5,-1 6,1 1,0 1,0 1,1l0 0c0,-1 0,-2 -2,-2 -1,-2 -4,-1 -5,0 -1,0 -2,1 -2,2z"/>
   <path class="fil18" d="M4 19l0 0c0,0 0,0 0,0 0,0 0,-1 0,-1 0,-1 0,-1 0,-1 -1,-1 -3,0 -3,-1 0,0 0,0 0,-1 -1,1 0,2 0,2 1,0 2,0 3,0 0,0 0,1 0,1 0,0 0,1 0,1 0,0 0,0 0,0z"/>
   <path class="fil16" d="M14 23c0,1 0,1 0,1 1,0 1,2 1,2 1,0 1,0 1,0l0 0c-1,-1 -1,-1 -1,-2 0,0 0,0 -1,-1 0,0 0,0 0,-1l0 0c0,1 0,1 0,1z"/>
   <path class="fil19" d="M8 15l0 -1 -1 0c0,1 0,1 0,1l1 0z"/>
   <path class="fil20" d="M1 15l0 0c1,0 2,1 3,0 0,0 0,0 0,-1 0,0 1,0 0,-1 0,0 0,0 -1,0 0,0 0,-1 0,-1 0,1 1,1 1,1 0,0 0,0 0,1 0,0 0,1 0,1 -1,0 -2,0 -3,0z"/>
   <path class="fil21" d="M13 10l0 0c-1,1 0,1 0,1 0,0 1,0 1,0 0,1 1,1 1,2l1 0 0 0c0,-1 -1,-2 -2,-2 -1,0 -2,-1 -1,-1 0,0 0,0 0,0 0,-1 0,0 0,0z"/>
   <path class="fil22" d="M15 21l1 0 0 0c1,-1 1,-1 2,0l-1 -1 -1 0 -1 1z"/>
   <path class="fil12" d="M17 14c0,0 0,-1 0,-1 1,0 1,0 1,0 1,-1 0,-1 2,-1 0,-1 0,-1 1,-1 0,0 0,0 0,0 -1,-1 -1,-1 -2,-1l0 1c1,0 1,-1 2,0 0,1 -1,0 -2,0 0,1 0,1 -1,1 0,1 -1,1 -1,1 0,0 0,1 0,1l0 0z"/>
   <path class="fil8" d="M19 15c0,0 1,0 1,0 0,1 -1,0 -1,0l0 0zm0 1c1,0 1,-1 1,-1 -1,0 -1,0 -2,0l0 1 1 0z"/>
   <path class="fil23" d="M4 12l0 0c1,0 1,0 2,-1 1,0 1,0 1,-2 -1,0 -1,0 -2,-1 0,0 0,-1 0,-2l1 0c-1,0 -1,1 -1,1 0,2 1,1 1,2 0,0 0,1 0,1 0,1 0,1 0,1 0,0 -1,1 -1,1 0,0 -1,0 -1,0z"/>
   <path class="fil24" d="M4 12c0,0 1,0 2,0 0,0 0,-1 0,-1 0,0 1,0 1,0 0,-1 0,0 0,-1 0,-1 0,-1 -1,-1 0,-1 -1,-1 -1,-1 0,-1 0,-1 0,-2 0,1 0,2 0,2 1,1 1,1 2,1 0,2 0,2 -1,2 -1,1 -1,1 -2,1z"/>
   <polygon class="fil4" points="21,18 21,18 21,14 21,14 "/>
   <polygon class="fil4" points="16,18 16,18 16,17 16,14 16,14 16,14 "/>
   <polygon class="fil4" points="17,18 17,18 17,14 17,14 "/>
   <path class="fil8" d="M26 16l-1 0c0,-1 1,-1 1,0zm-1 0l1 0c0,-1 -2,-1 -1,0z"/>
   <path class="fil25" d="M9 12c0,0 1,0 1,0 1,0 2,0 2,0 1,1 2,1 2,2l0 0c0,-1 -1,-1 -2,-2 -1,0 -3,0 -3,0z"/>
   <path class="fil8" d="M19 17l0 -1c0,0 0,0 1,1 0,0 -1,0 -1,0l0 0zm-1 0c1,0 2,0 2,0 0,-1 -1,-1 -2,-1l0 1z"/>
   <path class="fil11" d="M7 24c0,0 0,0 0,0 1,-1 1,-1 1,-2 0,0 0,1 1,1l1 -1c-1,0 -1,0 -1,0 -1,0 -1,0 -1,0 0,0 0,1 -1,1 0,1 0,1 0,1z"/>
   <path class="fil9" d="M10 9l0 0c0,0 0,0 0,0 0,0 0,-3 1,-3l0 0c-1,0 -1,0 -1,1 0,0 0,1 0,2l0 0z"/>
   <path class="fil21" d="M7 11c0,-1 0,-2 0,-2 0,0 -1,-1 -1,-1 -1,0 -1,-1 -1,-2 0,1 0,1 0,2 0,0 1,0 1,1 1,0 1,0 1,1 0,1 0,0 0,1z"/>
   <path class="fil26" d="M6 6l-1 0c0,1 0,2 1,2 -1,-1 -1,-2 0,-2 1,0 0,1 0,2 1,0 1,0 1,0 1,1 1,1 1,2l2 -1 0 0c-1,0 -1,0 -2,1 0,-1 0,-1 0,-2 -1,0 -1,0 -1,0 -1,-1 0,-1 -1,-2 0,0 0,0 0,0z"/>
   <path class="fil23" d="M9 23c1,0 1,0 1,2 0,0 0,1 0,1 0,0 1,0 1,0 -1,0 -1,-1 -1,-3 0,0 0,0 0,0l-1 0z"/>
   <path class="fil18" d="M12 10c0,0 0,0 0,1 0,0 1,0 1,0 0,0 1,1 2,1 0,1 0,1 0,1l1 0 -1 0c0,0 0,-1 -2,-2 0,0 -1,-1 0,-1l0 0 -1 0 0 -1c0,1 0,1 0,1z"/>
   <path class="fil11" d="M18 21c0,1 1,0 2,0 0,0 0,0 1,0 0,-1 -1,-1 -2,-1 0,0 0,0 0,0 1,0 1,0 1,0 1,1 1,1 0,1 0,0 0,0 -1,0 0,0 0,0 -1,0l0 0z"/>
   <path class="fil27" d="M11 25c0,0 0,0 0,0 0,0 0,-2 0,-2 1,0 2,-1 2,-1 1,1 0,1 1,2 0,0 0,0 0,0 0,0 0,0 0,-1 0,0 0,0 0,-1l-3 1c0,0 0,2 0,2z"/>
   <path class="fil9" d="M15 21l1 -1 1 0 1 1 0 0 0 0 0 -1 -2 0c0,0 0,0 -1,1l0 0z"/>
   <path class="fil5" d="M9 20c0,0 1,0 1,0 0,0 2,0 2,-1l-3 1z"/>
   <path class="fil8" d="M29 23c1,0 1,-1 2,-1 0,0 1,-1 0,-1 0,0 0,0 0,0 0,1 -1,2 -2,2z"/>
   <path class="fil3" d="M25 17c1,0 0,0 1,0 0,0 0,0 0,0l-1 0c0,0 0,0 0,0z"/>
   <path class="fil28" d="M20 17l-1 0 0 0c0,0 1,0 1,0z"/>
   <path class="fil20" d="M9 19c-1,-1 -1,-1 -2,0 0,0 0,0 0,0l-1 0 0 -1 0 0c0,1 0,1 0,1l1 0c0,0 0,0 0,-1 1,0 1,1 2,1z"/>
   <path class="fil16" d="M9 18l0 0 0 -1c0,0 -1,0 -1,-1 0,0 0,0 0,0 0,0 0,0 0,0 -1,1 0,1 1,1 0,0 0,0 0,1z"/>
   <path class="fil29" d="M16 26c0,0 0,0 0,0l0 0c0,0 0,0 -1,0 0,0 0,-2 -1,-2 1,0 1,0 1,1 0,0 0,0 0,1 0,0 1,0 1,0l0 0z"/>
   <path class="fil30" d="M9 18l0 0c0,-1 0,-1 0,-1 -1,0 -2,0 -1,-1 0,0 0,0 0,0 0,0 0,0 0,0 0,0 0,0 1,0 0,0 -1,0 -1,0 0,0 -1,0 -1,1 1,0 1,0 2,0 0,0 0,0 0,1z"/>
   <path class="fil31" d="M15 13c0,-1 -1,-1 -1,-2 0,0 -1,0 -1,0 0,0 -1,0 0,-1 -1,0 0,1 0,1 2,1 2,2 2,2z"/>
   <path class="fil29" d="M6 26c0,0 0,0 0,0 -1,0 -1,-2 -1,-2 0,0 0,0 0,0 0,0 0,2 0,2 1,0 1,0 1,0l0 0z"/>
   <path class="fil6" d="M19 15c0,0 1,1 1,0 0,0 -1,0 -1,0l0 0z"/>
   <path class="fil14" d="M6 15l0 -1 -1 0c0,1 0,1 0,1l1 0z"/>
   <path class="fil3" d="M25 21c0,0 1,0 1,0l0 0c0,0 -1,0 -1,0l0 0z"/>
   <path class="fil32" d="M16 26c0,-1 0,-1 0,-1 0,0 0,-1 0,-1 0,-1 -1,-1 -1,-1l0 -1 0 0c0,1 0,1 0,1 1,1 1,1 1,1 0,1 0,1 0,2z"/>
   <path class="fil11" d="M15 20l0 0c0,0 1,-1 1,-2l0 0c0,1 -1,2 -1,2z"/>
   <path class="fil33" d="M23 16l0 1 1 0c0,0 0,0 0,0 0,0 0,-1 0,-1l0 0 -1 0z"/>
   <path class="fil9" d="M6 17c1,0 1,-1 1,-1l0 0c0,0 0,1 -1,1 0,0 0,-1 0,-1l0 0c0,1 0,1 0,1z"/>
   <polygon class="fil3" points="10,15 10,15 10,14 10,14 "/>
   <path class="fil34" d="M4 20c0,0 1,0 1,0 1,1 1,1 1,1 0,0 0,-1 -1,-1 0,0 -1,0 -1,0l0 0z"/>
   <path class="fil15" d="M16 16l1 0 -1 -1c0,-1 1,-1 0,-1 0,1 0,2 0,2z"/>
   <path class="fil3" d="M26 16c0,-1 -1,-1 -1,0l1 0z"/>
   <path class="fil3" d="M25 20c1,0 1,0 0,0l0 0z"/>
   <path class="fil19" d="M14 16c0,0 0,0 0,0 1,-1 0,-1 0,0z"/>
   <path class="fil35" d="M3 12c0,-1 -1,0 -2,0 0,0 0,-1 0,-1 0,0 0,1 0,1 0,0 1,0 1,0 0,0 0,0 1,0z"/>
   <path class="fil19" d="M14 17c0,0 0,0 0,0 0,0 0,0 0,-1 0,1 0,1 0,1z"/>
   <polygon class="fil3" points="28,15 28,14 28,14 "/>
   <polygon class="fil36" points="12,15 12,14 11,14 12,15 "/>
   <path class="fil19" d="M13 15c0,0 0,0 1,0 0,0 0,0 0,-1l-1 0 0 1z"/>
   <path class="fil37" d="M16 18c0,-1 1,-1 1,-2 -1,1 -1,1 -1,2z"/>
   <path class="fil19" d="M15 22l1 0c0,-1 -1,-1 -1,-1l0 1z"/>
   <polygon class="fil24" points="6,15 6,15 6,14 6,14 "/>
   <path class="fil3" d="M20 15l1 0 0 -1 -1 0c0,1 0,1 0,1z"/>
   <path class="fil3" d="M24 17l-1 0 0 -1c0,1 0,1 0,1l0 0 1 0 0 0z"/>
   <path class="fil38" d="M23 15c0,0 0,0 -1,0l0 0 0 -1 2 0 0 1 -1 0c0,0 0,0 0,0l1 0 0 -1c0,0 -2,0 -2,0l0 1 1 0z"/>
   <path class="fil18" d="M6 23c0,0 0,0 1,0 0,-1 0,-1 -1,-2l0 0c0,1 0,1 0,1 0,1 0,1 0,1z"/>
   <path class="fil39" d="M15 8c0,0 0,-1 0,-1 0,0 0,0 0,-1 0,0 0,1 0,2z"/>
   <polygon class="fil40" points="12,15 12,15 12,14 12,14 "/>
   <polygon class="fil41" points="8,15 9,15 9,14 8,14 "/>
   <path class="fil42" d="M23 18c0,0 1,0 1,0 0,0 0,-1 0,-1 0,0 0,0 0,0l0 0c0,0 -1,0 -1,0 0,1 0,0 0,1z"/>
   <path class="fil25" d="M6 17c0,0 0,0 0,-1l0 0c0,0 0,0 0,1 0,0 0,0 0,0z"/>
   <path class="fil25" d="M7 18l-1 0 0 0c1,0 1,0 1,0z"/>
   <path class="fil20" d="M6 18l0 0c0,-1 1,-1 1,-1 0,1 0,1 0,1 0,-1 0,-1 0,-1 -1,0 -1,0 -1,1z"/>
   <path class="fil18" d="M2 20c1,0 1,0 1,0 0,0 0,-1 0,-1 0,0 0,1 -1,1z"/>
   <path class="fil20" d="M12 14l0 0c0,0 0,0 1,0 0,0 0,0 0,0 0,-1 -1,0 -1,0z"/>
   <path class="fil16" d="M10 18l1 0c0,0 0,-1 0,-1l-1 1z"/>
   <path class="fil43" d="M19 17l1 0c-1,-1 -1,-1 -1,-1l0 1z"/>
   <path class="fil44" d="M10 18l-1 0c0,1 1,0 1,0z"/>
   <path class="fil20" d="M8 14l1 0c0,0 0,0 1,0 -1,-1 -1,0 -2,0z"/>
   <path class="fil45" d="M16 21c0,0 0,1 0,1 1,0 1,0 1,0l0 -1 -1 0z"/>
   <path class="fil46" d="M9 21c1,1 1,1 2,0l-2 0z"/>
   <path class="fil47" d="M12 18l-1 0c1,0 1,0 1,0z"/>
   <path class="fil48" d="M17 18c0,-1 0,-1 0,-1 1,0 1,0 1,0 0,-1 0,-1 0,-1 -1,0 -1,0 -1,1 0,0 0,0 0,1z"/>
   <path class="fil49" d="M16 14l0 0c0,0 0,0 0,-1l0 0c0,1 0,1 0,1z"/>
   <path class="fil17" d="M19 20c0,0 0,-1 -1,-1 0,0 0,0 0,0 1,1 1,1 1,1l0 0z"/>
   <path class="fil32" d="M13 18l0 -1 0 0c0,0 0,0 0,0 0,0 0,0 0,1l0 0z"/>
   <path class="fil32" d="M10 15l0 -1 0 0c0,1 0,1 0,1 0,0 0,0 0,0z"/>
   <polygon class="fil13" points="12,16 12,16 12,16 "/>
   <path class="fil5" d="M17 15c1,0 1,0 1,-1l-1 0 0 1z"/>
   <polygon class="fil46" points="10,16 10,16 10,16 "/>
   <path class="fil3" d="M13 18l0 0c0,0 0,-1 0,-1l0 0 0 1z"/>
   <polygon class="fil50" points="17,12 18,12 18,11 "/>
   <path class="fil45" d="M11 16c0,0 0,0 0,0 0,0 0,0 0,0 0,0 0,0 0,0z"/>
   <path class="fil36" d="M16 14l0 0c0,0 -1,0 -1,0 1,0 0,0 1,0l0 0z"/>
   <path class="fil44" d="M16 14l0 0 0 0c0,0 0,0 0,-1l0 1z"/>
   <path class="fil26" d="M11 16c0,0 0,0 0,0l0 0 0 0 0 0z"/>
   <path class="fil46" d="M18 15c0,0 0,0 0,0 0,0 -1,0 0,0z"/>
   <path class="fil33" d="M22 17c0,0 0,0 0,0l0 0z"/>
   <polygon class="fil7" points="21,15 20,15 21,16 "/>
   <path class="fil7" d="M14 19c0,0 0,0 0,0 0,-1 0,0 0,0l0 0z"/>
  </g>
 </g>
</svg>
